<svg width="45" height="45" viewBox="0 0 45 45" fill="none" xmlns="http://www.w3.org/2000/svg">
<path d="M29.545 2.81254C29.0744 2.81122 28.5257 2.8445 27.8517 2.9018L5.9024 4.50993C4.13194 4.6618 3.51562 5.81112 3.51562 7.18784V31.0735C3.51562 32.1458 3.89976 33.0628 4.82437 34.2884L9.98383 40.9488C10.8311 42.0204 11.6021 42.2504 13.2207 42.1738L38.7117 40.6412C40.8675 40.49 41.4844 39.4941 41.4844 37.8109V10.9397C41.4844 10.0207 41.0981 9.79212 39.9422 8.94978L32.9356 4.04987C31.6653 3.13229 30.9566 2.81649 29.545 2.81254ZM29.0904 4.91367C30.4792 4.93616 31.2711 5.4693 31.8851 5.94364L35.5476 8.57899C35.703 8.65633 36.0928 9.12006 35.6245 9.12006L13.5695 10.4384C11.2302 10.5945 10.7621 10.6708 9.51691 9.66389L6.47781 7.26063C6.16703 6.94985 6.32293 6.56273 7.10129 6.48609L28.4573 4.93702C28.6813 4.91768 28.892 4.91046 29.0904 4.91367ZM37.738 11.96C38.3782 12.0246 38.6719 12.545 38.6719 13.4143V36.0736C38.6719 37.0693 38.5168 37.9128 37.1338 37.988L13.2468 39.3668C11.8637 39.442 11.25 38.9828 11.25 37.7573V14.9469C11.25 13.952 11.5573 13.4903 12.4791 13.4143L37.4428 11.9614C37.5485 11.9517 37.6466 11.9508 37.738 11.96ZM35.1562 15.8204L30.2344 16.1719C29.0805 16.3097 28.4766 16.875 28.4766 17.5782L30.5859 17.9297V28.4766L22.5 16.5235L17.0164 17.0069C15.9343 17.1419 15.5558 18.0763 15.7104 18.7647L17.5781 18.9844V33.75L16.875 34.1016C15.4688 34.4532 15.8203 35.1563 15.8203 35.5079L21.4453 35.1563C23.2031 34.8047 23.2031 33.75 23.2031 33.75L20.3906 33.0469V21.7969L28.0797 33.7294C29.0001 34.8748 29.3562 35.5079 30.5859 35.5079C31.6406 35.5079 32.6953 35.1563 33.3984 34.4532V17.5782L34.3776 17.39C35.156 17.2269 35.5078 16.5235 35.1562 15.8204Z" fill="black"/>
</svg>
