<svg width="14" height="14" viewBox="0 0 14 14" fill="none" xmlns="http://www.w3.org/2000/svg">
<g clip-path="url(#clip0_115_1088)">
<path d="M10.9013 13.2502L5.29991 8.00366C5.20331 7.92321 5.08158 7.87915 4.95587 7.87915C4.83016 7.87915 4.70842 7.92321 4.61183 8.00366L0.515625 10.9495" stroke="black" stroke-linecap="round" stroke-linejoin="round"/>
<path d="M9.85938 7.87915C9.03095 7.87915 8.35938 7.20758 8.35938 6.37915C8.35938 5.55072 9.03095 4.87915 9.85938 4.87915C10.6878 4.87915 11.3594 5.55072 11.3594 6.37915C11.3594 7.20758 10.6878 7.87915 9.85938 7.87915Z" stroke="black" stroke-linecap="round" stroke-linejoin="round"/>
<path d="M0.5 12.2502V1.75018C0.5 1.48496 0.605357 1.23061 0.792893 1.04307C0.98043 0.855537 1.23478 0.75018 1.5 0.75018H5.19C5.41843 0.743525 5.64226 0.815313 5.82421 0.953594C6.00615 1.09187 6.13525 1.2883 6.19 1.51018L6.5 2.75018H12.5C12.7652 2.75018 13.0196 2.85554 13.2071 3.04307C13.3946 3.23061 13.5 3.48496 13.5 3.75018V12.2502C13.5 12.5154 13.3946 12.7698 13.2071 12.9573C13.0196 13.1448 12.7652 13.2502 12.5 13.2502H1.5C1.23478 13.2502 0.98043 13.1448 0.792893 12.9573C0.605357 12.7698 0.5 12.5154 0.5 12.2502Z" stroke="black" stroke-linecap="round" stroke-linejoin="round"/>
</g>
<defs>
<clipPath id="clip0_115_1088">
<rect width="14" height="14" fill="white"/>
</clipPath>
</defs>
</svg>
