<svg width="45" height="45" viewBox="0 0 45 45" fill="none" xmlns="http://www.w3.org/2000/svg">
<path d="M10.8144 18.5496C10.365 18.5496 9.96545 18.7267 9.66582 19.0556C9.34122 19.3845 9.19141 19.7893 9.19141 20.27C9.19141 20.7506 9.34122 21.1301 9.66582 21.4843C9.99042 21.8132 10.365 21.9903 10.8144 21.9903C11.2638 21.9903 11.6634 21.8132 11.988 21.4843C12.3126 21.1554 12.4873 20.7506 12.4873 20.27C12.4873 19.7893 12.3126 19.3845 11.988 19.0556C11.6634 18.7014 11.2888 18.5496 10.8144 18.5496Z" fill="black"/>
<path d="M24.8222 18.5237C24.3728 18.5237 23.9733 18.7008 23.6736 19.0297C23.349 19.3586 23.1992 19.7634 23.1992 20.2441C23.1992 20.7248 23.349 21.1043 23.6736 21.4585C23.9982 21.7874 24.3728 21.9645 24.8222 21.9645C25.2717 21.9645 25.6712 21.7874 25.9958 21.4585C26.3204 21.1296 26.4951 20.7248 26.4951 20.2441C26.4951 19.7634 26.3204 19.3839 25.9958 19.0297C25.6961 18.6755 25.2966 18.5237 24.8222 18.5237Z" fill="black"/>
<path d="M34.1855 18.5496C33.7361 18.5496 33.3365 18.7267 33.0369 19.0556C32.7123 19.3845 32.5625 19.7893 32.5625 20.27C32.5625 20.7506 32.7123 21.1301 33.0369 21.4843C33.3615 21.8132 33.7361 21.9903 34.1855 21.9903C34.635 21.9903 35.0345 21.8132 35.3591 21.4843C35.6837 21.1554 35.8585 20.7506 35.8585 20.27C35.8585 19.7893 35.6837 19.3845 35.3591 19.0556C35.0345 18.7014 34.635 18.5496 34.1855 18.5496Z" fill="black"/>
<path d="M38.3305 6.05127H6.66954C4.24753 6.05127 2.25 8.07526 2.25 10.5293V28.6693C2.25 31.1234 4.24753 33.1474 6.66954 33.1474H19.1042C19.1042 33.1474 21.5012 39.8013 22.3752 39.8013C23.2491 39.8013 25.8459 33.1474 25.8459 33.1474H38.3305C40.7525 33.1474 42.75 31.1234 42.75 28.6693V10.5293C42.75 8.07526 40.7525 6.05127 38.3305 6.05127ZM14.0105 22.7998C13.3863 23.5082 12.4125 23.8118 11.3637 23.8118C10.4149 23.8118 9.71578 23.5335 9.2164 23.1287H9.19143V23.6347H6.81936V13.1352H9.19143V17.1579H9.24137C9.89057 16.6013 10.7395 16.4242 11.7383 16.3736C12.5872 16.3483 13.4861 16.8796 14.0355 17.5121C14.5598 18.1446 14.9593 19.1313 14.9593 20.2192C14.9593 21.4083 14.6597 22.0914 14.0105 22.7998ZM19.1292 23.7359H16.7072C16.7072 23.7359 16.7072 18.2205 16.7072 17.2338C16.7072 15.7411 15.5336 15.5387 15.5336 15.5387V12.9328C15.5336 12.9328 18.9294 13.1352 19.1292 17.3097C19.1292 18.4988 19.1292 23.7359 19.1292 23.7359ZM28.6424 21.7372C28.4427 22.2179 28.143 22.6227 27.7435 23.0022C27.369 23.3564 26.9195 23.6347 26.4202 23.8371C25.9208 24.0395 25.3964 24.1407 24.8471 24.1407C24.2978 24.1407 23.7734 24.0395 23.299 23.8371C22.7996 23.6347 22.3502 23.3564 21.9756 23.0022C21.5761 22.6227 21.2765 22.1926 21.0768 21.7372C20.877 21.2818 20.7771 20.7758 20.7771 20.2445C20.7771 19.7132 20.877 19.2325 21.0768 18.7518C21.2765 18.2964 21.5761 17.8663 21.9756 17.4868C22.3752 17.1326 22.7996 16.8543 23.299 16.6519C23.7984 16.4495 24.3228 16.3483 24.8471 16.3483C25.3964 16.3483 25.9208 16.4495 26.4202 16.6519C26.9195 16.8543 27.369 17.1326 27.7435 17.4868C28.143 17.8663 28.4177 18.2711 28.6424 18.7518C28.8422 19.2325 28.942 19.7132 28.942 20.2445C28.942 20.7758 28.8422 21.2565 28.6424 21.7372ZM38.1806 22.7745C38.1806 24.6214 37.8311 25.7346 37.0321 26.5188C36.0583 27.4549 34.685 27.5055 33.5364 27.3537V25.4563C34.5102 25.5575 35.8335 24.8997 35.8335 23.6347V23.154H35.8086C35.2592 23.913 34.4852 24.1913 33.4115 24.1913C32.4377 24.1913 31.5888 23.8371 31.0145 23.154C30.4402 22.4709 30.1655 21.5601 30.1655 20.4216C30.1655 19.1313 30.4901 18.1193 31.1144 17.3603C31.7636 16.6013 32.6625 16.2471 33.7112 16.2471C34.635 16.2471 35.2343 16.4748 35.8086 17.0061H35.8335V16.4242H38.2056V22.7745H38.1806Z" fill="black"/>
</svg>
