<svg width="45" height="45" viewBox="0 0 45 45" fill="none" xmlns="http://www.w3.org/2000/svg">
<path fill-rule="evenodd" clip-rule="evenodd" d="M23.843 9.40522C27.0083 6.23993 32.2422 6.23993 35.4075 9.40522C38.5728 12.5705 38.5728 17.8045 35.4075 20.9698L29.6309 26.7464C26.8815 29.7235 22.4075 29.88 19.3252 27.8251C18.2482 27.1071 17.9571 25.6519 18.6751 24.5749C19.3931 23.4979 20.8483 23.2069 21.9253 23.9249C23.3276 24.8597 25.1993 24.6531 26.2035 23.5484C26.2285 23.5209 26.2542 23.494 26.2805 23.4677L32.093 17.6552C33.4277 16.3205 33.4277 14.0545 32.093 12.7198C30.806 11.4329 28.6533 11.3868 27.3044 12.5816L27.0754 12.9251C26.3574 14.0021 24.9022 14.2931 23.8252 13.5751C22.7481 12.8571 22.4571 11.4019 23.1751 10.3249L23.5501 9.76242C23.6357 9.634 23.7338 9.51435 23.843 9.40522Z" fill="black"/>
<path fill-rule="evenodd" clip-rule="evenodd" d="M15.2984 18.141C18.0589 15.6315 22.3071 14.9728 25.5937 17.4378C26.6293 18.2144 26.8391 19.6835 26.0625 20.719C25.2858 21.7546 23.8168 21.9644 22.7812 21.1878C21.5826 20.2888 19.8584 20.367 18.5013 21.565L12.7459 27.5061L12.7198 27.5326C11.3851 28.8673 11.3851 31.1333 12.7198 32.468C14.0545 33.8027 16.3205 33.8027 17.6552 32.468L19.3125 34.1253L17.6552 32.468L18.2177 31.9055C19.133 30.9902 20.617 30.9902 21.5323 31.9055C22.4476 32.8208 22.4476 34.3048 21.5323 35.2201L20.9698 35.7826C17.8045 38.9479 12.5705 38.9479 9.40522 35.7826C6.24469 32.622 6.23993 27.399 9.39097 24.2323L15.1916 18.2445C15.2261 18.2089 15.2617 18.1744 15.2984 18.141Z" fill="black"/>
</svg>
