<svg width="14" height="14" viewBox="0 0 14 14" fill="none" xmlns="http://www.w3.org/2000/svg">
<g clip-path="url(#clip0_115_1099)">
<path d="M13.5 12.5C13.5 12.7652 13.3946 13.0196 13.2071 13.2071C13.0196 13.3946 12.7652 13.5 12.5 13.5H1.5C1.23478 13.5 0.98043 13.3946 0.792893 13.2071C0.605357 13.0196 0.5 12.7652 0.5 12.5V4.91C0.501105 4.64766 0.605256 4.39626 0.79 4.21L4.21 0.79C4.39626 0.605256 4.64766 0.501105 4.91 0.5H12.5C12.7652 0.5 13.0196 0.605357 13.2071 0.792893C13.3946 0.98043 13.5 1.23478 13.5 1.5V12.5Z" stroke="black" stroke-linecap="round" stroke-linejoin="round"/>
<path d="M10.5 13.5V9C10.5 8.86739 10.4473 8.74021 10.3536 8.64645C10.2598 8.55268 10.1326 8.5 10 8.5H4C3.86739 8.5 3.74021 8.55268 3.64645 8.64645C3.55268 8.74021 3.5 8.86739 3.5 9V13.5" stroke="black" stroke-linecap="round" stroke-linejoin="round"/>
<path d="M10.5 0.5V4C10.5 4.13261 10.4473 4.25979 10.3536 4.35355C10.2598 4.44732 10.1326 4.5 10 4.5H6C5.86739 4.5 5.74021 4.44732 5.64645 4.35355C5.55268 4.25979 5.5 4.13261 5.5 4V0.5" stroke="black" stroke-linecap="round" stroke-linejoin="round"/>
</g>
<defs>
<clipPath id="clip0_115_1099">
<rect width="14" height="14" fill="white"/>
</clipPath>
</defs>
</svg>
