<svg width="45" height="45" viewBox="0 0 45 45" fill="none" xmlns="http://www.w3.org/2000/svg">
<g clip-path="url(#clip0_1532_28809)">
<path fill-rule="evenodd" clip-rule="evenodd" d="M22.5186 0C10.0664 0 0 10.1406 0 22.6859C0 32.7141 6.44989 41.2027 15.3976 44.2071C16.5163 44.4329 16.9261 43.719 16.9261 43.1184C16.9261 42.5924 16.8892 40.7897 16.8892 38.9114C10.6251 40.2638 9.32061 36.2071 9.32061 36.2071C8.31392 33.5779 6.82233 32.9021 6.82233 32.9021C4.77208 31.5124 6.97167 31.5124 6.97167 31.5124C9.24594 31.6627 10.4393 33.8411 10.4393 33.8411C12.4522 37.2963 15.6958 36.32 17.0007 35.7189C17.187 34.2541 17.7839 33.24 18.4177 32.6767C13.4216 32.1508 8.16504 30.1978 8.16504 21.4838C8.16504 19.0049 9.05926 16.9768 10.4762 15.3994C10.2526 14.8362 9.46949 12.5071 10.7002 9.38975C10.7002 9.38975 12.6016 8.78869 16.8887 11.7184C18.7242 11.2218 20.6171 10.9692 22.5186 10.9671C24.42 10.9671 26.3582 11.2303 28.148 11.7184C32.4357 8.78869 34.337 9.38975 34.337 9.38975C35.5677 12.5071 34.7841 14.8362 34.5606 15.3994C36.0149 16.9768 36.8722 19.0049 36.8722 21.4838C36.8722 30.1978 31.6157 32.113 26.5822 32.6767C27.4027 33.3903 28.1107 34.7422 28.1107 36.8833C28.1107 39.9254 28.0738 42.367 28.0738 43.1179C28.0738 43.719 28.4841 44.4329 29.6023 44.2075C38.55 41.2022 44.9999 32.7141 44.9999 22.6859C45.0368 10.1406 34.9335 0 22.5186 0Z" fill="#24292F"/>
</g>
<defs>
<clipPath id="clip0_1532_28809">
<rect width="45" height="45" fill="white"/>
</clipPath>
</defs>
</svg>
