<svg width="23" height="20" viewBox="0 0 23 20" fill="none" xmlns="http://www.w3.org/2000/svg">
<path fill-rule="evenodd" clip-rule="evenodd" d="M21.2925 0.444824H1.58505L1.47949 0.452325C1.09979 0.506731 0.807129 0.850501 0.807129 1.26647C0.807129 1.72025 1.15542 2.08811 1.58505 2.08811H21.2925L21.3981 2.08061C21.7778 2.0262 22.0704 1.68243 22.0704 1.26647C22.0704 0.812686 21.7221 0.444824 21.2925 0.444824ZM1.58505 9.209H21.2925C21.7221 9.209 22.0704 9.57686 22.0704 10.0306C22.0704 10.4466 21.7778 10.7904 21.3981 10.8448L21.2925 10.8523H1.58505C1.15542 10.8523 0.807129 10.4844 0.807129 10.0306C0.807129 9.61468 1.09979 9.27091 1.47949 9.2165L1.58505 9.209ZM1.58505 17.9732H21.2925C21.7221 17.9732 22.0704 18.341 22.0704 18.7948C22.0704 19.2108 21.7778 19.5546 21.3981 19.609L21.2925 19.6165H1.58505C1.15542 19.6165 0.807129 19.2486 0.807129 18.7948C0.807129 18.3789 1.09979 18.0351 1.47949 17.9807L1.58505 17.9732Z" fill="#262626"/>
</svg>
