<svg width="25" height="20" viewBox="0 0 25 20" fill="none" xmlns="http://www.w3.org/2000/svg">
<path fill-rule="evenodd" clip-rule="evenodd" d="M12.3474 2.54674L11.6662 1.81238C8.92468 -0.716062 4.55271 -0.543761 1.81123 1.98468C-0.93025 4.51313 -0.402645 9.40145 2.33884 11.9299C3.45149 12.9561 5.11776 14.3769 7.33764 16.1924L9.20519 17.7077L11.3028 19.387C11.8803 19.8467 12.7337 19.8538 13.32 19.4036L15.0193 18.0896C17.995 15.7702 20.2032 13.9433 21.6439 12.6089L22.0178 12.2572L22.3536 11.9299C24.9068 9.39054 25.5629 4.45433 22.8852 1.98468L22.6912 1.81238C19.9379 -0.542394 15.7861 -0.657261 13.1084 1.81238L12.3474 2.54674Z" fill="black"/>
</svg>
