<svg width="26" height="21" viewBox="0 0 26 21" fill="none" xmlns="http://www.w3.org/2000/svg">
<path fill-rule="evenodd" clip-rule="evenodd" d="M12.907 3.49937L12.2257 2.76502C9.48425 0.236575 5.11228 0.408876 2.3708 2.93732C-0.37068 5.46577 0.156925 10.3541 2.89841 12.8825C4.01106 13.9087 5.67733 15.3296 7.89721 17.1451L9.76476 18.6604L11.8623 20.3396C12.4399 20.7994 13.2932 20.8064 13.8796 20.3563L15.5788 19.0423C18.5546 16.7228 20.7628 14.8959 22.2035 13.5615L22.5774 13.2098L22.9132 12.8825C25.4664 10.3432 26.1225 5.40697 23.4448 2.93732L23.2508 2.76502C20.4975 0.410243 16.3457 0.295376 13.668 2.76502L12.907 3.49937ZM3.47389 3.95469C5.64169 1.95534 8.9954 1.8616 11.0823 3.74561L12.8431 5.64351L14.7957 3.75909C16.7987 1.91235 19.9908 1.93905 22.1901 3.82001L22.3627 3.97366C24.2549 5.71918 23.933 9.7523 21.7693 11.9042L21.4443 12.2209L21.0837 12.5599C19.8894 13.6654 18.1195 15.1464 15.7857 16.9909L14.5719 17.9434L12.8816 19.2504L10.7874 17.5738L9.28849 16.3595C7.17645 14.6379 5.54715 13.2609 4.40637 12.2339L4.00149 11.8652C1.74309 9.78226 1.46062 5.81151 3.47389 3.95469Z" fill="#262626"/>
</svg>
