<svg width="88" height="15" viewBox="0 0 88 15" fill="none" xmlns="http://www.w3.org/2000/svg">
<path d="M4.74 14.36C4.00667 14.36 3.26 14.2667 2.5 14.08C1.74 13.9067 1.10667 13.6733 0.6 13.38L0.7 10.66H0.9L1.52 11.96C1.70667 12.3333 1.90667 12.6667 2.12 12.96C2.33333 13.24 2.62667 13.46 3 13.62C3.26667 13.7533 3.52 13.8467 3.76 13.9C4.01333 13.94 4.29333 13.96 4.6 13.96C5.41333 13.96 6.05333 13.74 6.52 13.3C7 12.86 7.24 12.2933 7.24 11.6C7.24 10.9467 7.08 10.44 6.76 10.08C6.44 9.70667 5.92667 9.34667 5.22 9L4.4 8.64C3.25333 8.13333 2.35333 7.55333 1.7 6.9C1.06 6.23333 0.74 5.35333 0.74 4.26C0.74 3.47333 0.94 2.79333 1.34 2.22C1.75333 1.64667 2.32 1.20667 3.04 0.899999C3.77333 0.593333 4.62667 0.439999 5.6 0.439999C6.30667 0.439999 6.97333 0.533333 7.6 0.719999C8.24 0.906666 8.79333 1.16 9.26 1.48L9.14 3.88H8.94L8.12 2.38C7.89333 1.91333 7.66667 1.58667 7.44 1.4C7.21333 1.2 6.95333 1.06 6.66 0.98C6.48667 0.926666 6.32667 0.893333 6.18 0.88C6.03333 0.853333 5.84667 0.839999 5.62 0.839999C4.94 0.839999 4.36667 1.04 3.9 1.44C3.43333 1.82667 3.2 2.35333 3.2 3.02C3.2 3.7 3.38 4.24667 3.74 4.66C4.1 5.06 4.62667 5.42 5.32 5.74L6.24 6.14C7.52 6.7 8.44 7.3 9 7.94C9.56 8.56667 9.84 9.38 9.84 10.38C9.84 11.5533 9.39333 12.5133 8.5 13.26C7.62 13.9933 6.36667 14.36 4.74 14.36ZM15.033 14.36C14.2996 14.36 13.553 14.2667 12.793 14.08C12.033 13.9067 11.3996 13.6733 10.893 13.38L10.993 10.66H11.193L11.813 11.96C11.9996 12.3333 12.1996 12.6667 12.413 12.96C12.6263 13.24 12.9196 13.46 13.293 13.62C13.5596 13.7533 13.813 13.8467 14.053 13.9C14.3063 13.94 14.5863 13.96 14.893 13.96C15.7063 13.96 16.3463 13.74 16.813 13.3C17.293 12.86 17.533 12.2933 17.533 11.6C17.533 10.9467 17.373 10.44 17.053 10.08C16.733 9.70667 16.2196 9.34667 15.513 9L14.693 8.64C13.5463 8.13333 12.6463 7.55333 11.993 6.9C11.353 6.23333 11.033 5.35333 11.033 4.26C11.033 3.47333 11.233 2.79333 11.633 2.22C12.0463 1.64667 12.613 1.20667 13.333 0.899999C14.0663 0.593333 14.9196 0.439999 15.893 0.439999C16.5996 0.439999 17.2663 0.533333 17.893 0.719999C18.533 0.906666 19.0863 1.16 19.553 1.48L19.433 3.88H19.233L18.413 2.38C18.1863 1.91333 17.9596 1.58667 17.733 1.4C17.5063 1.2 17.2463 1.06 16.953 0.98C16.7796 0.926666 16.6196 0.893333 16.473 0.88C16.3263 0.853333 16.1396 0.839999 15.913 0.839999C15.233 0.839999 14.6596 1.04 14.193 1.44C13.7263 1.82667 13.493 2.35333 13.493 3.02C13.493 3.7 13.673 4.24667 14.033 4.66C14.393 5.06 14.9196 5.42 15.613 5.74L16.533 6.14C17.813 6.7 18.733 7.3 19.293 7.94C19.853 8.56667 20.133 9.38 20.133 10.38C20.133 11.5533 19.6863 12.5133 18.793 13.26C17.913 13.9933 16.6596 14.36 15.033 14.36ZM20.3553 14V13.8L20.8553 13.62C21.122 13.5133 21.3286 13.3867 21.4753 13.24C21.622 13.08 21.742 12.86 21.8353 12.58L25.9553 0.759999H27.6553L31.7153 12.66C31.822 12.9533 31.942 13.18 32.0753 13.34C32.2086 13.4867 32.4153 13.6133 32.6953 13.72L32.9353 13.8V14H27.8553V13.8L28.1553 13.7C28.4353 13.5933 28.602 13.4467 28.6553 13.26C28.722 13.06 28.7153 12.8267 28.6353 12.56L27.6953 9.68H23.2553L22.2953 12.5C22.202 12.7933 22.1686 13.0267 22.1953 13.2C22.2353 13.3733 22.3953 13.5133 22.6753 13.62L23.1153 13.8V14H20.3553ZM23.3953 9.28H27.5753L25.5553 3.06L23.3953 9.28ZM33.565 14V13.8L33.925 13.68C34.1917 13.5867 34.3717 13.46 34.465 13.3C34.5583 13.14 34.605 12.9267 34.605 12.66C34.6183 11.86 34.625 11.0533 34.625 10.24C34.625 9.42667 34.625 8.61333 34.625 7.8V7C34.625 6.2 34.625 5.4 34.625 4.6C34.625 3.78667 34.6183 2.98 34.605 2.18C34.605 1.91333 34.565 1.7 34.485 1.54C34.4183 1.38 34.2583 1.25333 34.005 1.16L33.565 0.999999V0.799999H43.245L43.385 4.12H43.185L42.045 2.02C41.9117 1.76667 41.7583 1.56667 41.585 1.42C41.4117 1.27333 41.1717 1.2 40.865 1.2H37.645C37.6317 2.14667 37.625 3.11333 37.625 4.1C37.625 5.08667 37.625 6.06667 37.625 7.04H39.705C40.0117 7.04 40.2383 6.97333 40.385 6.84C40.5317 6.70667 40.6717 6.51333 40.805 6.26L41.225 5.5H41.425V9H41.225L40.785 8.24C40.6517 8 40.5117 7.80667 40.365 7.66C40.2317 7.51333 40.0117 7.44 39.705 7.44H37.625C37.625 8.37333 37.625 9.26667 37.625 10.12C37.625 10.96 37.6317 11.7867 37.645 12.6C37.645 13.12 37.8983 13.46 38.405 13.62L39.005 13.8V14H33.565ZM47.1867 14V13.8L47.7867 13.64C48.2534 13.5067 48.4867 13.1733 48.4867 12.64V8.84L45.1867 2.12C45.0667 1.85333 44.9534 1.65333 44.8467 1.52C44.7534 1.38667 44.6067 1.27333 44.4067 1.18L44.0467 0.999999V0.799999H49.4067V0.999999L49.0467 1.14C48.7534 1.26 48.5934 1.42667 48.5667 1.64C48.5401 1.84 48.5934 2.09333 48.7267 2.4L51.0867 7.64L53.7267 2.2C53.8334 1.98667 53.8734 1.76667 53.8467 1.54C53.8334 1.31333 53.6934 1.16667 53.4267 1.1L53.1467 0.999999V0.799999H55.5467V0.999999L55.1667 1.14C54.9134 1.23333 54.7267 1.36667 54.6067 1.54C54.4867 1.7 54.3667 1.90667 54.2467 2.16L51.5067 7.92V12.64C51.5067 12.9067 51.5534 13.1267 51.6467 13.3C51.7534 13.46 51.9334 13.5733 52.1867 13.64L52.8067 13.8V14H47.1867ZM56.1236 14V13.8L56.5236 13.64C56.7903 13.5467 56.9636 13.42 57.0436 13.26C57.1369 13.1 57.1836 12.8867 57.1836 12.62V2.18C57.1836 1.91333 57.1436 1.7 57.0636 1.54C56.9836 1.38 56.8036 1.25333 56.5236 1.16L56.1236 0.999999V0.799999H61.2636V0.999999L60.8636 1.16C60.5969 1.25333 60.4169 1.38 60.3236 1.54C60.2436 1.7 60.2036 1.91333 60.2036 2.18V12.62C60.2036 12.8867 60.2436 13.1 60.3236 13.26C60.4169 13.4067 60.5969 13.5333 60.8636 13.64L61.2636 13.8V14H56.1236ZM62.3992 14V13.8L63.0592 13.6C63.2992 13.5333 63.4726 13.4067 63.5792 13.22C63.6859 13.02 63.7392 12.7867 63.7392 12.52V2.9C63.5926 2.58 63.4726 2.34 63.3792 2.18C63.2992 2.02 63.2059 1.88667 63.0992 1.78C62.9926 1.66 62.8459 1.51333 62.6592 1.34L62.3192 0.999999V0.799999H65.8592L72.4992 9.86V2.32C72.4992 2.05333 72.4526 1.81333 72.3592 1.6C72.2792 1.38667 72.1059 1.24667 71.8392 1.18L71.1792 0.999999V0.799999H74.0392V0.999999L73.4992 1.18C73.2592 1.26 73.1126 1.4 73.0592 1.6C73.0059 1.8 72.9792 2.03333 72.9792 2.3V14.06H71.8592L64.2192 3.56V12.52C64.2192 12.7867 64.2592 13.0133 64.3392 13.2C64.4192 13.3867 64.5859 13.52 64.8392 13.6L65.4392 13.8V14H62.3992ZM81.655 14.36C80.295 14.36 79.095 14.08 78.055 13.52C77.0283 12.9467 76.2217 12.14 75.635 11.1C75.0617 10.0467 74.775 8.80667 74.775 7.38C74.775 5.99333 75.0617 4.78 75.635 3.74C76.2083 2.7 77.035 1.89333 78.115 1.32C79.2083 0.733333 80.5283 0.439999 82.075 0.439999C82.7817 0.439999 83.435 0.52 84.035 0.68C84.6483 0.839999 85.2283 1.07333 85.775 1.38L85.855 4.18H85.655L84.535 2.1C84.3617 1.76667 84.2017 1.52667 84.055 1.38C83.9083 1.23333 83.7217 1.12 83.495 1.04C83.2817 0.973333 83.0817 0.926666 82.895 0.899999C82.7217 0.859999 82.4883 0.839999 82.195 0.839999C81.3683 0.839999 80.635 1.06 79.995 1.5C79.3683 1.94 78.8817 2.64 78.535 3.6C78.1883 4.56 78.015 5.82 78.015 7.38C78.015 8.92667 78.175 10.1867 78.495 11.16C78.8283 12.1333 79.295 12.8467 79.895 13.3C80.495 13.74 81.1883 13.96 81.975 13.96C82.095 13.96 82.2083 13.9533 82.315 13.94C82.435 13.9133 82.5483 13.8867 82.655 13.86C82.9083 13.82 83.075 13.7133 83.155 13.54C83.235 13.3667 83.275 13.16 83.275 12.92V8.96C83.275 8.44 83.0083 8.12 82.475 8L81.555 7.76V7.56H87.195V7.76L86.915 7.84C86.4083 8 86.155 8.33333 86.155 8.84V13.18C85.4617 13.5667 84.755 13.86 84.035 14.06C83.3283 14.26 82.535 14.36 81.655 14.36Z" fill="black"/>
</svg>
