<svg width="22" height="23" viewBox="0 0 22 23" fill="none" xmlns="http://www.w3.org/2000/svg">
<path fill-rule="evenodd" clip-rule="evenodd" d="M0.415039 0.640725V21.4094C0.415039 21.6614 0.52261 21.9033 0.71449 22.0828C1.11777 22.46 1.77624 22.4643 2.18524 22.0924L11.0758 14.0073L19.9664 22.0924C20.161 22.2693 20.4233 22.3685 20.6966 22.3685C21.271 22.3685 21.7366 21.9391 21.7366 21.4094V0.640725C21.7366 0.375853 21.5038 0.161133 21.2166 0.161133H0.935039C0.647851 0.161133 0.415039 0.375853 0.415039 0.640725ZM1.97504 20.2629V1.59991H20.1766V20.2629L11.806 12.6508C11.4011 12.2825 10.7505 12.2825 10.3456 12.6508L1.97504 20.2629Z" fill="#262626"/>
</svg>
