<svg width="23" height="23" viewBox="0 0 23 23" fill="none" xmlns="http://www.w3.org/2000/svg">
<g clip-path="url(#clip0_56_993)">
<path d="M11.9792 2.89701C10.3819 2.7543 6.70833 3.23953 4.79167 6.32219C2.39583 10.1755 4.79167 18.3104 1.4375 19.1667H11.9792" stroke="black" stroke-width="1.8" stroke-linejoin="round"/>
<path d="M11.0208 2.89701C12.6181 2.7543 16.2917 3.23953 18.2083 6.32219C20.6042 10.1755 18.2083 18.3104 21.5625 19.1667H11.0208" stroke="black" stroke-width="1.8" stroke-linejoin="round"/>
<path d="M8.625 21.0833C9.10891 22.2115 10.2141 22.9999 11.5 22.9999C12.7859 22.9999 13.8911 22.2115 14.375 21.0833H8.625Z" fill="black"/>
<path fill-rule="evenodd" clip-rule="evenodd" d="M13.1599 2.875C13.323 2.59308 13.4163 2.26578 13.4163 1.91667C13.4163 0.858121 12.5582 0 11.4997 0C10.4411 0 9.58301 0.858121 9.58301 1.91667C9.58301 2.26578 9.67634 2.59308 9.83942 2.875C9.86415 2.91774 9.89047 2.95943 9.91832 3H13.081C13.1089 2.95943 13.1352 2.91774 13.1599 2.875Z" fill="black"/>
</g>
<defs>
<clipPath id="clip0_56_993">
<rect width="23" height="23" fill="white"/>
</clipPath>
</defs>
</svg>
