<svg width="12" height="21" viewBox="0 0 12 21" fill="none" xmlns="http://www.w3.org/2000/svg">
<path fill-rule="evenodd" clip-rule="evenodd" d="M10.9641 0.284277C11.0332 0.358539 11.088 0.44676 11.1254 0.543885C11.1629 0.641011 11.1821 0.745133 11.1821 0.850289C11.1821 0.955444 11.1629 1.05957 11.1254 1.15669C11.088 1.25382 11.0332 1.34204 10.9641 1.4163L2.58115 10.4437L10.9641 19.4711C11.0331 19.5454 11.0878 19.6337 11.1252 19.7308C11.1625 19.8279 11.1817 19.932 11.1817 20.0371C11.1817 20.1422 11.1625 20.2463 11.1252 20.3434C11.0878 20.4406 11.0331 20.5288 10.9641 20.6031C10.8951 20.6775 10.8131 20.7364 10.723 20.7767C10.6328 20.8169 10.5362 20.8376 10.4386 20.8376C10.341 20.8376 10.2443 20.8169 10.1542 20.7767C10.064 20.7364 9.98206 20.6775 9.91305 20.6031L1.0061 11.0097C0.936979 10.9355 0.882138 10.8472 0.844719 10.7501C0.8073 10.653 0.78804 10.5489 0.78804 10.4437C0.78804 10.3386 0.8073 10.2344 0.844719 10.1373C0.882138 10.0402 0.936979 9.95196 1.0061 9.87769L9.91305 0.284277C9.982 0.209827 10.0639 0.150759 10.1541 0.110456C10.2443 0.0701535 10.3409 0.0494079 10.4386 0.0494079C10.5362 0.0494079 10.6329 0.0701535 10.723 0.110456C10.8132 0.150759 10.8951 0.209827 10.9641 0.284277Z" fill="black"/>
</svg>
