<svg width="24" height="23" viewBox="0 0 24 23" fill="none" xmlns="http://www.w3.org/2000/svg">
<path fill-rule="evenodd" clip-rule="evenodd" d="M23.0802 11.5C23.0802 5.67283 17.9583 0.948975 11.6402 0.948975C5.32206 0.948975 0.200195 5.67283 0.200195 11.5C0.200195 17.3272 5.32206 22.051 11.6402 22.051C13.0192 22.051 14.9135 21.587 17.3233 20.6591L21.2199 22.061L21.3354 22.0956C21.8391 22.2174 22.3729 21.9743 22.5667 21.516C22.6443 21.3327 22.6588 21.1319 22.6084 20.9408L21.5219 16.8196L21.6998 16.427C22.6201 14.3596 23.0802 12.7173 23.0802 11.5ZM20.2424 15.9126L19.8838 16.6958L20.8567 20.386L17.3034 19.1076L16.333 19.4788C14.2865 20.2404 12.7057 20.6122 11.6402 20.6122C6.18362 20.6122 1.7602 16.5325 1.7602 11.5C1.7602 6.46744 6.18362 2.38775 11.6402 2.38775C17.0968 2.38775 21.5202 6.46744 21.5202 11.5C21.5202 12.5028 21.1011 13.9893 20.2424 15.9126Z" fill="#262626"/>
</svg>
