<svg width="23" height="23" viewBox="0 0 23 23" fill="none" xmlns="http://www.w3.org/2000/svg">
<g clip-path="url(#clip0_56_612)">
<path d="M1.27838 9.46679C0.785107 11.9466 1.21018 14.5213 2.47439 16.7109L1.27838 21.7216L6.28906 20.5256C8.47875 21.7898 11.0534 22.2149 13.5332 21.7216C16.0131 21.2283 18.229 19.8504 19.7682 17.8444C21.3074 15.8385 22.0649 13.3414 21.8996 10.8184C21.7342 8.29536 20.6573 5.91849 18.8694 4.13062C17.0815 2.34275 14.7046 1.26581 12.1816 1.10044C9.6586 0.935072 7.1615 1.69256 5.15556 3.23177C3.14962 4.77098 1.77165 6.98694 1.27838 9.46679Z" stroke="#2C2C2C" stroke-width="2.15625" stroke-linejoin="round"/>
<path d="M9.17995 8.12846C9.01272 8.00776 8.77844 8.05227 8.66711 8.22587L5.03125 13.8958L8.45609 11.5815C8.70595 11.4126 9.03464 11.4177 9.27917 11.5942L13.82 14.8715C13.9873 14.9922 14.2216 14.9477 14.3329 14.7741L17.9688 9.10417L14.5439 11.4185C14.294 11.5874 13.9654 11.5823 13.7208 11.4058L9.17995 8.12846Z" fill="#2C2C2C"/>
</g>
<defs>
<clipPath id="clip0_56_612">
<rect width="23" height="23" fill="white"/>
</clipPath>
</defs>
</svg>
