<svg width="36" height="23" viewBox="0 0 36 23" fill="none" xmlns="http://www.w3.org/2000/svg">
<rect x="0.652371" y="0.652371" width="33.9233" height="20.8759" rx="5.87134" stroke="black" stroke-width="1.30474"/>
<path d="M7.25344 5.78133H13.0334V13.7924H7.25344V5.78133ZM11.3242 7.13826H8.96265V12.4225H11.3242V7.13826ZM14.6122 4.64621H16.3605V16.7281H14.6122V4.64621ZM15.9691 9.19975H18.1089V10.635H15.9691V9.19975ZM26.0146 4.64621H27.7499V11.3787H26.0146V4.64621ZM27.2672 7.26874H29.3547V8.69091H27.2672V7.26874ZM22.544 5.33772H24.3967C24.3967 8.54738 22.3874 10.7263 18.7863 11.6657L18.1079 10.2957C21.0696 9.55203 22.544 8.01244 22.544 6.19885V5.33772ZM18.682 5.33772H23.5878V6.7077H18.682V5.33772ZM19.9084 11.8614H27.7499V16.5976H19.9084V11.8614ZM26.0407 13.2314H21.6176V15.2277H26.0407V13.2314Z" fill="black"/>
</svg>
