<svg width="58" height="22" viewBox="0 0 58 22" fill="none" xmlns="http://www.w3.org/2000/svg">
<rect x="0.652371" y="0.652371" width="56.6953" height="20.6953" rx="5.87134" stroke="black" stroke-width="1.30474"/>
<path d="M15.8983 5.07931H17.6336V17.1612H15.8983V5.07931ZM13.5629 9.71114H16.7334V11.1203H13.5629V9.71114ZM11.9319 6.33186H13.6411C13.6411 9.99819 12.4799 12.986 8.29169 15.0867L7.37838 13.7297C10.7968 12.0336 11.9319 9.84162 11.9319 6.645V6.33186ZM7.95246 6.33186H12.8452V7.70184H7.95246V6.33186ZM19.1983 13.0643H20.0464C21.4816 13.0643 22.7472 13.0382 24.2346 12.8034L24.3651 14.1995C22.8255 14.4604 21.5208 14.4995 20.0464 14.4995H19.1983V13.0643ZM19.1853 6.25358H23.7649V10.9246H20.8814V13.5862H19.1983V9.55458H22.0818V7.6366H19.1853V6.25358ZM27.6009 5.07931H29.2448V17.1612H27.6009V5.07931ZM25.983 9.64591H27.9923V11.0289H25.983V9.64591ZM24.9 5.28807H26.5049V16.5871H24.9V5.28807ZM32.9754 9.97209H34.7107V11.7987H32.9754V9.97209ZM33.8235 5.56207C35.5718 5.56207 36.8374 6.56672 36.8374 8.02803C36.8374 9.46324 35.5718 10.4679 33.8235 10.4679C32.0751 10.4679 30.8095 9.46324 30.8095 8.02803C30.8095 6.56672 32.0751 5.56207 33.8235 5.56207ZM33.8235 6.86681C33.0015 6.86681 32.4274 7.28432 32.4274 8.02803C32.4274 8.75868 33.0015 9.1762 33.8235 9.1762C34.6585 9.1762 35.2195 8.75868 35.2195 8.02803C35.2195 7.28432 34.6585 6.86681 33.8235 6.86681ZM38.0769 5.09236H39.8122V14.3038H38.0769V5.09236ZM39.199 8.87611H41.3257V10.2983H39.199V8.87611ZM31.7489 15.5564H40.2167V16.9525H31.7489V15.5564ZM31.7489 13.5079H33.4973V16.1566H31.7489V13.5079ZM30.3789 12.7381L30.1832 11.3551C32.2317 11.3551 35.063 11.3421 37.4376 11.0028L37.555 12.2423C35.1151 12.699 32.3752 12.7381 30.3789 12.7381ZM44.3517 12.1249H46.0479V14.9693H44.3517V12.1249ZM48.1746 12.1119H49.8708V14.9693H48.1746V12.1119ZM41.5856 14.4213H52.5194V15.8304H41.5856V14.4213ZM42.8121 5.86216H51.2929V9.86771H44.5605V11.9162H42.8382V8.51078H49.5707V7.23213H42.8121V5.86216ZM42.8382 11.1855H51.5669V12.5816H42.8382V11.1855Z" fill="black"/>
</svg>
