<svg width="58" height="22" viewBox="0 0 58 22" fill="none" xmlns="http://www.w3.org/2000/svg">
<rect x="0.652371" y="0.652371" width="56.6953" height="20.6953" rx="5.87134" stroke="black" stroke-width="1.30474"/>
<path d="M7.7698 6.05787H14.2152V7.45394H7.7698V6.05787ZM7.63932 12.3728L7.45666 10.9767C9.5051 10.9637 12.3103 10.9376 14.6327 10.6375L14.7502 11.9031C12.3755 12.3206 9.63558 12.3728 7.63932 12.3728ZM8.72226 7.12776H10.3923V11.2377H8.72226V7.12776ZM11.6057 7.12776H13.2628V11.2377H11.6057V7.12776ZM15.2982 5.09236H17.0335V13.9907H15.2982V5.09236ZM16.5377 8.48469H18.6383V9.9199H16.5377V8.48469ZM9.24416 15.5694H17.464V16.9525H9.24416V15.5694ZM9.24416 13.1557H10.9795V15.9348H9.24416V13.1557ZM27.6009 5.07931H29.2579V17.1612H27.6009V5.07931ZM26.1526 9.68505H28.1488V11.0811H26.1526V9.68505ZM24.9522 5.26198H26.5832V16.6132H24.9522V5.26198ZM19.2114 6.31882H23.9867V14.1473H19.2114V6.31882ZM22.3688 7.67575H20.8292V12.7903H22.3688V7.67575ZM32.9754 9.97209H34.7107V11.7987H32.9754V9.97209ZM33.8235 5.56207C35.5718 5.56207 36.8374 6.56672 36.8374 8.02803C36.8374 9.46324 35.5718 10.4679 33.8235 10.4679C32.0751 10.4679 30.8095 9.46324 30.8095 8.02803C30.8095 6.56672 32.0751 5.56207 33.8235 5.56207ZM33.8235 6.86681C33.0015 6.86681 32.4274 7.28432 32.4274 8.02803C32.4274 8.75868 33.0015 9.1762 33.8235 9.1762C34.6585 9.1762 35.2195 8.75868 35.2195 8.02803C35.2195 7.28432 34.6585 6.86681 33.8235 6.86681ZM38.0769 5.09236H39.8122V14.3038H38.0769V5.09236ZM39.199 8.87611H41.3257V10.2983H39.199V8.87611ZM31.7489 15.5564H40.2167V16.9525H31.7489V15.5564ZM31.7489 13.5079H33.4973V16.1566H31.7489V13.5079ZM30.3789 12.7381L30.1832 11.3551C32.2317 11.3551 35.063 11.3421 37.4376 11.0028L37.555 12.2423C35.1151 12.699 32.3752 12.7381 30.3789 12.7381ZM44.3517 12.1249H46.0479V14.9693H44.3517V12.1249ZM48.1746 12.1119H49.8708V14.9693H48.1746V12.1119ZM41.5856 14.4213H52.5194V15.8304H41.5856V14.4213ZM42.8121 5.86216H51.2929V9.86771H44.5605V11.9162H42.8382V8.51078H49.5707V7.23213H42.8121V5.86216ZM42.8382 11.1855H51.5669V12.5816H42.8382V11.1855Z" fill="black"/>
</svg>
