<svg width="57" height="24" viewBox="0 0 57 24" fill="none" xmlns="http://www.w3.org/2000/svg">
<rect x="0.681735" y="0.681735" width="55.2205" height="21.8155" rx="6.13561" stroke="#FF0000" stroke-width="1.36347"/>
<path d="M10.7851 15.054H22.211V16.5265H10.7851V15.054ZM15.5709 12.2589H17.3843V15.3949H15.5709V12.2589ZM11.9713 6.28689H20.9566V12.4907H11.9713V6.28689ZM19.1841 7.73217H13.7575V11.059H19.1841V7.73217ZM25.7004 6.45051H27.1866V7.22769C27.1866 9.49104 26.014 11.5362 23.587 12.2725L22.6735 10.8545C24.7869 10.241 25.7004 8.71387 25.7004 7.22769V6.45051ZM26.0685 6.45051H27.5547V7.22769C27.5547 8.63206 28.4682 10.0637 30.5134 10.65L29.6272 12.0544C27.2411 11.359 26.0685 9.40924 26.0685 7.22769V6.45051ZM23.1643 6.04147H30.0362V7.47311H23.1643V6.04147ZM31.3042 5.35973H33.1313V12.2043H31.3042V5.35973ZM24.7323 12.7497H26.5185V13.8951H31.3315V12.7497H33.1313V17.8491H24.7323V12.7497ZM26.5185 15.2994V16.4038H31.3315V15.2994H26.5185ZM39.2931 11.6999H41.1065V13.9223H39.2931V11.6999ZM34.4937 11.0999H45.9059V12.5316H34.4937V11.0999ZM40.1794 13.4315C42.9063 13.4315 44.5561 14.2496 44.5561 15.7085C44.5561 17.1674 42.9063 17.9855 40.1794 17.9855C37.4388 17.9855 35.789 17.1674 35.789 15.7085C35.789 14.2496 37.4388 13.4315 40.1794 13.4315ZM40.1794 14.7949C38.4887 14.7949 37.6297 15.0813 37.6297 15.7085C37.6297 16.322 38.4887 16.622 40.1794 16.622C41.8701 16.622 42.7291 16.322 42.7291 15.7085C42.7291 15.0813 41.8701 14.7949 40.1794 14.7949ZM38.9522 6.54595H40.5611V6.85955C40.5611 8.75477 38.8568 10.3091 35.5981 10.6091L34.9709 9.19108C37.7388 8.95929 38.9522 7.84125 38.9522 6.85955V6.54595ZM39.8385 6.54595H41.4474V6.85955C41.4474 7.85488 42.6472 8.95929 45.4287 9.19108L44.8015 10.6091C41.5565 10.3091 39.8385 8.76841 39.8385 6.85955V6.54595ZM35.5299 5.87785H44.8833V7.30949H35.5299V5.87785Z" fill="#FF0000"/>
</svg>
