<svg width="57" height="24" viewBox="0 0 57 24" fill="none" xmlns="http://www.w3.org/2000/svg">
<rect x="0.681735" y="0.681735" width="55.2205" height="21.8155" rx="6.13561" stroke="#FF0000" stroke-width="1.36347"/>
<path d="M11.03 6.38233H17.7656V7.84125H11.03V6.38233ZM10.8937 12.9815L10.7028 11.5226C12.8434 11.509 15.7749 11.4817 18.2019 11.1681L18.3246 12.4907C15.8431 12.927 12.9798 12.9815 10.8937 12.9815ZM12.0254 7.50038H13.7706V11.7953H12.0254V7.50038ZM15.0386 7.50038H16.7702V11.7953H15.0386V7.50038ZM18.8973 5.37337H20.7107V14.6722H18.8973V5.37337ZM20.1925 8.91839H22.3877V10.4182H20.1925V8.91839ZM12.5708 16.322H21.1606V17.7673H12.5708V16.322ZM12.5708 13.7996H14.3842V16.7038H12.5708V13.7996ZM31.7537 5.35973H33.4853V17.9855H31.7537V5.35973ZM30.2403 10.1728H32.3264V11.6317H30.2403V10.1728ZM28.9859 5.55062H30.6902V17.4128H28.9859V5.55062ZM22.9866 6.65503H27.9769V14.8358H22.9866V6.65503ZM26.2862 8.07304H24.6773V13.4178H26.2862V8.07304ZM39.2926 11.6999H41.106V13.9223H39.2926V11.6999ZM34.4932 11.0999H45.9055V12.5316H34.4932V11.0999ZM40.1789 13.4315C42.9058 13.4315 44.5556 14.2496 44.5556 15.7085C44.5556 17.1674 42.9058 17.9855 40.1789 17.9855C37.4383 17.9855 35.7885 17.1674 35.7885 15.7085C35.7885 14.2496 37.4383 13.4315 40.1789 13.4315ZM40.1789 14.7949C38.4882 14.7949 37.6292 15.0813 37.6292 15.7085C37.6292 16.322 38.4882 16.622 40.1789 16.622C41.8696 16.622 42.7286 16.322 42.7286 15.7085C42.7286 15.0813 41.8696 14.7949 40.1789 14.7949ZM38.9518 6.54595H40.5607V6.85955C40.5607 8.75477 38.8563 10.3091 35.5976 10.6091L34.9704 9.19108C37.7383 8.95929 38.9518 7.84125 38.9518 6.85955V6.54595ZM39.838 6.54595H41.4469V6.85955C41.4469 7.85488 42.6468 8.95929 45.4282 9.19108L44.801 10.6091C41.556 10.3091 39.838 8.76841 39.838 6.85955V6.54595ZM35.5294 5.87785H44.8829V7.30949H35.5294V5.87785Z" fill="#FF0000"/>
</svg>
