<svg width="57" height="24" viewBox="0 0 57 24" fill="none" xmlns="http://www.w3.org/2000/svg">
<rect x="0.681735" y="0.681735" width="55.2205" height="21.8155" rx="6.13561" stroke="#FF0000" stroke-width="1.36347"/>
<path d="M19.5244 5.35973H21.3379V17.9855H19.5244V5.35973ZM17.0838 10.2H20.3971V11.6726H17.0838V10.2ZM15.3795 6.66866H17.1656C17.1656 10.5 15.9522 13.6224 11.5754 15.8175L10.621 14.3995C14.1933 12.627 15.3795 10.3364 15.3795 6.9959V6.66866ZM11.2209 6.66866H16.3339V8.10031H11.2209V6.66866ZM22.973 13.7042H23.8592C25.359 13.7042 26.6816 13.6769 28.236 13.4315L28.3723 14.8904C26.7634 15.1631 25.3999 15.204 23.8592 15.204H22.973V13.7042ZM22.9593 6.58685H27.7451V11.4681H24.7318V14.2496H22.973V10.0364H25.9862V8.03213H22.9593V6.58685ZM31.7537 5.35973H33.4717V17.9855H31.7537V5.35973ZM30.063 10.1319H32.1627V11.5772H30.063V10.1319ZM28.9313 5.57789H30.6084V17.3855H28.9313V5.57789ZM39.2926 11.6999H41.106V13.9223H39.2926V11.6999ZM34.4932 11.0999H45.9055V12.5316H34.4932V11.0999ZM40.1789 13.4315C42.9058 13.4315 44.5556 14.2496 44.5556 15.7085C44.5556 17.1674 42.9058 17.9855 40.1789 17.9855C37.4383 17.9855 35.7885 17.1674 35.7885 15.7085C35.7885 14.2496 37.4383 13.4315 40.1789 13.4315ZM40.1789 14.7949C38.4882 14.7949 37.6292 15.0813 37.6292 15.7085C37.6292 16.322 38.4882 16.622 40.1789 16.622C41.8696 16.622 42.7286 16.322 42.7286 15.7085C42.7286 15.0813 41.8696 14.7949 40.1789 14.7949ZM38.9518 6.54595H40.5607V6.85955C40.5607 8.75477 38.8563 10.3091 35.5976 10.6091L34.9704 9.19108C37.7383 8.95929 38.9518 7.84125 38.9518 6.85955V6.54595ZM39.838 6.54595H41.4469V6.85955C41.4469 7.85488 42.6468 8.95929 45.4282 9.19108L44.801 10.6091C41.556 10.3091 39.838 8.76841 39.838 6.85955V6.54595ZM35.5294 5.87785H44.8829V7.30949H35.5294V5.87785Z" fill="#FF0000"/>
</svg>
