<svg width="19" height="16" viewBox="0 0 19 16" fill="none" xmlns="http://www.w3.org/2000/svg">
<path fill-rule="evenodd" clip-rule="evenodd" d="M9.5343 1.96651L9.00824 1.39946C6.89135 -0.55292 3.51546 -0.419875 1.39857 1.53251C-0.718309 3.48489 -0.31091 7.2595 1.80597 9.21188C2.66513 10.0043 3.95177 11.1014 5.66589 12.5033L7.10796 13.6733L8.72765 14.97C9.17361 15.325 9.83252 15.3304 10.2853 14.9829L11.5974 13.9682C13.8952 12.1772 15.6003 10.7666 16.7127 9.73619L17.0014 9.4646L17.2608 9.21188C19.2322 7.25107 19.7389 3.43949 17.6712 1.53251L17.5215 1.39946C15.3954 -0.418819 12.1895 -0.507516 10.1219 1.39946L9.5343 1.96651Z" fill="#FF0000"/>
</svg>
