<svg width="15" height="16" viewBox="0 0 15 16" fill="none" xmlns="http://www.w3.org/2000/svg">
<path fill-rule="evenodd" clip-rule="evenodd" d="M1.56 6C2.42156 6 3.12 6.67157 3.12 7.5C3.12 8.32843 2.42156 9 1.56 9C0.698436 9 0 8.32843 0 7.5C0 6.67157 0.698436 6 1.56 6ZM7.28 6C8.14156 6 8.84 6.67157 8.84 7.5C8.84 8.32843 8.14156 9 7.28 9C6.41844 9 5.72 8.32843 5.72 7.5C5.72 6.67157 6.41844 6 7.28 6ZM13 6C13.8616 6 14.56 6.67157 14.56 7.5C14.56 8.32843 13.8616 9 13 9C12.1384 9 11.44 8.32843 11.44 7.5C11.44 6.67157 12.1384 6 13 6Z" fill="#262626"/>
</svg>
