<svg width="11" height="21" viewBox="0 0 11 21" fill="none" xmlns="http://www.w3.org/2000/svg">
<path fill-rule="evenodd" clip-rule="evenodd" d="M10.1879 0.235147C10.2571 0.309497 10.312 0.397822 10.3495 0.495063C10.387 0.592304 10.4062 0.696549 10.4062 0.80183C10.4062 0.90711 10.387 1.01136 10.3495 1.1086C10.312 1.20584 10.2571 1.29416 10.1879 1.36851L1.79508 10.4066L10.1879 19.4447C10.257 19.5191 10.3118 19.6075 10.3492 19.7047C10.3866 19.8019 10.4059 19.9062 10.4059 20.0114C10.4059 20.1166 10.3866 20.2209 10.3492 20.3181C10.3118 20.4153 10.257 20.5037 10.1879 20.5781C10.1188 20.6525 10.0368 20.7115 9.94654 20.7518C9.85626 20.7921 9.75951 20.8128 9.6618 20.8128C9.56408 20.8128 9.46733 20.7921 9.37705 20.7518C9.28678 20.7115 9.20476 20.6525 9.13566 20.5781L0.218165 10.9733C0.148961 10.8989 0.0940547 10.8106 0.0565915 10.7134C0.0191283 10.6161 -0.000154955 10.5119 -0.00015495 10.4066C-0.000154946 10.3013 0.0191284 10.1971 0.0565915 10.0998C0.0940547 10.0026 0.148961 9.91428 0.218165 9.83993L9.13566 0.235147C9.20469 0.160609 9.2867 0.101471 9.37698 0.0611205C9.46726 0.0207701 9.56405 -3.68137e-08 9.6618 -3.25411e-08C9.75954 -2.82684e-08 9.85633 0.0207701 9.94661 0.0611205C10.0369 0.101471 10.1189 0.160609 10.1879 0.235147Z" fill="black"/>
</svg>
