<svg width="21" height="21" viewBox="0 0 21 21" fill="none" xmlns="http://www.w3.org/2000/svg">
<path d="M9.27608 6.87219C9.26947 6.71976 9.29384 6.56758 9.34772 6.42481C9.4016 6.28204 9.48388 6.15163 9.5896 6.04144C9.69532 5.93125 9.82229 5.84357 9.96286 5.78366C10.1034 5.72375 10.2547 5.69287 10.4076 5.69287C10.5604 5.69287 10.7117 5.72375 10.8523 5.78366C10.9928 5.84357 11.1198 5.93125 11.2255 6.04144C11.3313 6.15163 11.4135 6.28204 11.4674 6.42481C11.5213 6.56758 11.5457 6.71976 11.5391 6.87219V9.27695H13.942C14.2424 9.27695 14.5304 9.39605 14.7428 9.60804C14.9552 9.82003 15.0745 10.1076 15.0745 10.4074C15.0745 10.7072 14.9552 10.9947 14.7428 11.2067C14.5304 11.4187 14.2424 11.5378 13.942 11.5378H11.5369V13.9425C11.5435 14.095 11.5192 14.2471 11.4653 14.3899C11.4114 14.5327 11.3291 14.6631 11.2234 14.7733C11.1177 14.8835 10.9907 14.9712 10.8501 15.0311C10.7096 15.091 10.5583 15.1218 10.4054 15.1218C10.2526 15.1218 10.1013 15.091 9.96074 15.0311C9.82017 14.9712 9.69319 14.8835 9.58747 14.7733C9.48175 14.6631 9.39948 14.5327 9.3456 14.3899C9.29171 14.2471 9.26735 14.095 9.27396 13.9425V11.5378H6.86253C6.56216 11.5378 6.27409 11.4187 6.0617 11.2067C5.8493 10.9947 5.72998 10.7072 5.72998 10.4074C5.72998 10.1076 5.8493 9.82003 6.0617 9.60804C6.27409 9.39605 6.56216 9.27695 6.86253 9.27695H9.27608V6.87219Z" fill="black"/>
<circle cx="10.4064" cy="10.4064" r="9.88608" stroke="black" stroke-width="1.04064"/>
</svg>
