<svg width="281" height="42" viewBox="0 0 281 42" fill="none" xmlns="http://www.w3.org/2000/svg">
<path d="M14.85 36.7C11.95 36.7 9.2 36.35 6.6 35.65C4 34.95 1.88333 34.05 0.25 32.95L4.15 25.55C5.91667 26.6833 7.8 27.55 9.8 28.15C11.8 28.7167 13.8 29 15.8 29C17.7 29 19.1667 28.7333 20.2 28.2C21.2667 27.6333 21.8 26.8667 21.8 25.9C21.8 25.0667 21.3167 24.4167 20.35 23.95C19.4167 23.4833 17.95 22.9833 15.95 22.45C13.6833 21.85 11.8 21.25 10.3 20.65C8.8 20.0167 7.5 19.0667 6.4 17.8C5.33333 16.5333 4.8 14.8667 4.8 12.8C4.8 10.3 5.48333 8.11667 6.85 6.25C8.21667 4.35 10.1667 2.88333 12.7 1.85C15.2333 0.816665 18.2 0.299998 21.6 0.299998C24.1 0.299998 26.4333 0.566665 28.6 1.1C30.7667 1.6 32.6333 2.33333 34.2 3.3L30.6 10.65C29.2333 9.78333 27.7167 9.13333 26.05 8.7C24.4167 8.23333 22.7333 8 21 8C19.0333 8 17.4833 8.31667 16.35 8.95C15.25 9.58333 14.7 10.4 14.7 11.4C14.7 12.2667 15.1833 12.9333 16.15 13.4C17.1167 13.8667 18.6167 14.3667 20.65 14.9C22.9167 15.4667 24.7833 16.05 26.25 16.65C27.75 17.25 29.0333 18.1667 30.1 19.4C31.1667 20.6333 31.7 22.25 31.7 24.25C31.7 26.7167 31 28.9 29.6 30.8C28.2333 32.6667 26.2667 34.1167 23.7 35.15C21.1667 36.1833 18.2167 36.7 14.85 36.7ZM47.223 36.7C44.323 36.7 41.573 36.35 38.973 35.65C36.373 34.95 34.2564 34.05 32.623 32.95L36.523 25.55C38.2897 26.6833 40.173 27.55 42.173 28.15C44.173 28.7167 46.173 29 48.173 29C50.073 29 51.5397 28.7333 52.573 28.2C53.6397 27.6333 54.173 26.8667 54.173 25.9C54.173 25.0667 53.6897 24.4167 52.723 23.95C51.7897 23.4833 50.323 22.9833 48.323 22.45C46.0564 21.85 44.173 21.25 42.673 20.65C41.173 20.0167 39.873 19.0667 38.773 17.8C37.7064 16.5333 37.173 14.8667 37.173 12.8C37.173 10.3 37.8564 8.11667 39.223 6.25C40.5897 4.35 42.5397 2.88333 45.073 1.85C47.6064 0.816665 50.573 0.299998 53.973 0.299998C56.473 0.299998 58.8064 0.566665 60.973 1.1C63.1397 1.6 65.0064 2.33333 66.573 3.3L62.973 10.65C61.6064 9.78333 60.0897 9.13333 58.423 8.7C56.7897 8.23333 55.1064 8 53.373 8C51.4064 8 49.8564 8.31667 48.723 8.95C47.623 9.58333 47.073 10.4 47.073 11.4C47.073 12.2667 47.5564 12.9333 48.523 13.4C49.4897 13.8667 50.9897 14.3667 53.023 14.9C55.2897 15.4667 57.1564 16.05 58.623 16.65C60.123 17.25 61.4064 18.1667 62.473 19.4C63.5397 20.6333 64.073 22.25 64.073 24.25C64.073 26.7167 63.373 28.9 61.973 30.8C60.6064 32.6667 58.6397 34.1167 56.073 35.15C53.5397 36.1833 50.5897 36.7 47.223 36.7ZM88.9961 0.299998C93.5294 0.299998 97.0961 1.45 99.6961 3.75C102.329 6.05 103.646 9.23333 103.646 13.3C103.646 14.7333 103.513 16.1 103.246 17.4L99.4961 36H89.5961L91.1461 28.25H77.5461L75.9961 36H66.2461L70.1961 16.15C71.2294 10.95 73.3461 7.01667 76.5461 4.35C79.7794 1.65 83.9294 0.299998 88.9961 0.299998ZM92.6961 20.6L93.4461 16.75C93.6461 15.75 93.7461 14.85 93.7461 14.05C93.7461 12.2167 93.2461 10.8333 92.2461 9.9C91.2794 8.96667 89.8794 8.5 88.0461 8.5C85.8461 8.5 84.0628 9.11667 82.6961 10.35C81.3628 11.5833 80.4294 13.5667 79.8961 16.3L79.0461 20.6H92.6961ZM128.843 8.5C123.843 8.5 120.927 10.5667 120.093 14.7L119.743 16.35H133.143L131.593 24H118.243L115.843 36H105.943L110.143 14.95C112.077 5.18333 118.46 0.299998 129.293 0.299998C131.227 0.299998 133.143 0.516665 135.043 0.949998C136.943 1.38333 138.51 1.98333 139.743 2.75L135.493 10.2C134.627 9.63333 133.61 9.21666 132.443 8.95C131.277 8.65 130.077 8.5 128.843 8.5ZM176.749 0.999998L171.799 25.65C170.733 30.95 168.566 34.9 165.299 37.5C162.066 40.1333 157.833 41.45 152.599 41.45C146.299 41.45 141.283 39.95 137.549 36.95L142.399 29.75C145.566 32.15 149.099 33.35 152.999 33.35C155.533 33.35 157.516 32.7333 158.949 31.5C160.383 30.2333 161.383 28.1667 161.949 25.3L162.199 24.05C160.933 25.2833 159.499 26.2167 157.899 26.85C156.333 27.45 154.649 27.75 152.849 27.75C149.216 27.75 146.349 26.7333 144.249 24.7C142.183 22.6333 141.149 19.7333 141.149 16C141.149 14.6 141.299 13.1 141.599 11.5L143.699 0.999998H153.599L151.449 11.7C151.249 12.6333 151.149 13.4833 151.149 14.25C151.149 16.0167 151.616 17.35 152.549 18.25C153.483 19.15 154.816 19.6 156.549 19.6C158.583 19.6 160.299 18.9667 161.699 17.7C163.133 16.4333 164.116 14.4667 164.649 11.8L166.799 0.999998H176.749ZM195.858 8.65L191.908 28.35H197.558L196.058 36H174.758L176.308 28.35H182.008L185.908 8.65H180.258L181.758 0.999998H203.058L201.558 8.65H195.858ZM227.309 0.299998C230.876 0.299998 233.676 1.35 235.709 3.45C237.776 5.51666 238.809 8.4 238.809 12.1C238.809 13.3333 238.643 14.8333 238.309 16.6L234.459 36H224.509L228.459 16.4C228.659 15.4 228.759 14.5167 228.759 13.75C228.759 12.0167 228.309 10.7167 227.409 9.85C226.509 8.95 225.193 8.5 223.459 8.5C221.426 8.5 219.693 9.13333 218.259 10.4C216.826 11.6333 215.826 13.5833 215.259 16.25L211.309 36H201.409L208.409 0.999998H218.009L217.359 4.4C218.659 3.06666 220.159 2.05 221.859 1.35C223.559 0.649998 225.376 0.299998 227.309 0.299998ZM268.255 17.75H277.005L273.305 36H266.555L266.955 33.95C264.555 35.7833 261.622 36.7 258.155 36.7C255.289 36.7 252.672 36.0833 250.305 34.85C247.939 33.5833 246.072 31.8 244.705 29.5C243.339 27.1667 242.655 24.4667 242.655 21.4C242.655 17.3333 243.589 13.7 245.455 10.5C247.322 7.3 249.939 4.8 253.305 3C256.672 1.2 260.539 0.299998 264.905 0.299998C268.272 0.299998 271.255 0.849998 273.855 1.95C276.489 3.05 278.589 4.65 280.155 6.75L273.055 12.35C271.922 10.95 270.672 9.96667 269.305 9.4C267.939 8.8 266.322 8.5 264.455 8.5C262.089 8.5 260.005 9.03333 258.205 10.1C256.439 11.1333 255.072 12.5667 254.105 14.4C253.139 16.2333 252.655 18.3167 252.655 20.65C252.655 23.1167 253.339 25.0667 254.705 26.5C256.105 27.9333 258.072 28.65 260.605 28.65C262.705 28.65 264.639 28.05 266.405 26.85L268.255 17.75Z" fill="url(#paint0_linear_521_28509)"/>
<defs>
<linearGradient id="paint0_linear_521_28509" x1="1" y1="21" x2="278.968" y2="24.0023" gradientUnits="userSpaceOnUse">
<stop stop-color="#DDEEDF"/>
<stop offset="0.165" stop-color="#B6CDBD" stop-opacity="0.8"/>
<stop offset="0.295" stop-color="#AEC5B5" stop-opacity="0.9"/>
<stop offset="0.455" stop-color="#A3BAA9"/>
<stop offset="0.58" stop-color="#98AE9D" stop-opacity="0.83"/>
<stop offset="0.71" stop-color="#829887" stop-opacity="0.9252"/>
<stop offset="0.845" stop-color="#728775"/>
<stop offset="0.9999" stop-color="#708674"/>
<stop offset="1" stop-color="#5C715E"/>
</linearGradient>
</defs>
</svg>
