<svg width="240" height="62" viewBox="0 0 240 62" fill="none" xmlns="http://www.w3.org/2000/svg">
<path d="M12.5603 30.5843C10.1398 30.5843 7.84439 30.2921 5.67422 29.7079C3.50404 29.1236 1.7373 28.3724 0.373989 27.4542L3.62925 21.2776C5.10385 22.2236 6.67583 22.9469 8.3452 23.4478C10.0146 23.9207 11.6839 24.1572 13.3533 24.1572C14.9392 24.1572 16.1634 23.9346 17.0259 23.4895C17.9162 23.0165 18.3614 22.3766 18.3614 21.5697C18.3614 20.8741 17.9579 20.3316 17.1511 19.9421C16.3721 19.5526 15.1479 19.1352 13.4785 18.6901C11.5865 18.1893 10.0146 17.6884 8.76254 17.1876C7.51052 16.659 6.42543 15.8661 5.50728 14.8088C4.61695 13.7515 4.17179 12.3604 4.17179 10.6354C4.17179 8.54869 4.74216 6.7263 5.88289 5.16823C7.02362 3.58233 8.65125 2.35813 10.7658 1.49563C12.8803 0.633125 15.3565 0.201872 18.1944 0.201872C20.2811 0.201872 22.2287 0.424454 24.0372 0.869619C25.8457 1.28696 27.4038 1.89906 28.7114 2.70592L25.7066 8.84083C24.5658 8.11743 23.2999 7.57489 21.9088 7.2132C20.5455 6.82368 19.1404 6.62892 17.6936 6.62892C16.0521 6.62892 14.7583 6.89324 13.8124 7.42187C12.8942 7.9505 12.4351 8.63216 12.4351 9.46684C12.4351 10.1902 12.8386 10.7467 13.6454 11.1362C14.4523 11.5257 15.7043 11.9431 17.4015 12.3882C19.2934 12.8612 20.8515 13.3481 22.0757 13.8489C23.3277 14.3497 24.3989 15.1148 25.2892 16.1443C26.1796 17.1737 26.6247 18.5231 26.6247 20.1925C26.6247 22.2514 26.0404 24.0738 24.8719 25.6597C23.7312 27.2177 22.0896 28.428 19.9473 29.2905C17.8327 30.153 15.3704 30.5843 12.5603 30.5843ZM39.5815 30.5843C37.1609 30.5843 34.8656 30.2921 32.6954 29.7079C30.5252 29.1236 28.7585 28.3724 27.3952 27.4542L30.6504 21.2776C32.125 22.2236 33.697 22.9469 35.3664 23.4478C37.0357 23.9207 38.7051 24.1572 40.3745 24.1572C41.9604 24.1572 43.1846 23.9346 44.0471 23.4895C44.9374 23.0165 45.3826 22.3766 45.3826 21.5697C45.3826 20.8741 44.9791 20.3316 44.1723 19.9421C43.3932 19.5526 42.169 19.1352 40.4997 18.6901C38.6077 18.1893 37.0357 17.6884 35.7837 17.1876C34.5317 16.659 33.4466 15.8661 32.5285 14.8088C31.6381 13.7515 31.193 12.3604 31.193 10.6354C31.193 8.54869 31.7633 6.7263 32.9041 5.16823C34.0448 3.58233 35.6724 2.35813 37.787 1.49563C39.9015 0.633125 42.3777 0.201872 45.2156 0.201872C47.3023 0.201872 49.2499 0.424454 51.0584 0.869619C52.8669 1.28696 54.4249 1.89906 55.7326 2.70592L52.7277 8.84083C51.587 8.11743 50.3211 7.57489 48.93 7.2132C47.5666 6.82368 46.1616 6.62892 44.7148 6.62892C43.0733 6.62892 41.7795 6.89324 40.8335 7.42187C39.9154 7.9505 39.4563 8.63216 39.4563 9.46684C39.4563 10.1902 39.8597 10.7467 40.6666 11.1362C41.4735 11.5257 42.7255 11.9431 44.4227 12.3882C46.3146 12.8612 47.8727 13.3481 49.0969 13.8489C50.3489 14.3497 51.4201 15.1148 52.3104 16.1443C53.2007 17.1737 53.6459 18.5231 53.6459 20.1925C53.6459 22.2514 53.0616 24.0738 51.8931 25.6597C50.7523 27.2177 49.1108 28.428 46.9684 29.2905C44.8539 30.153 42.3916 30.5843 39.5815 30.5843ZM74.4487 0.201872C78.2326 0.201872 81.2096 1.16176 83.3798 3.08152C85.5778 5.00129 86.6768 7.65836 86.6768 11.0527C86.6768 12.2491 86.5655 13.3898 86.3429 14.4749L83.2129 30H74.9495L76.2433 23.5312H64.8916L63.5978 30H55.4597L58.7567 13.4316C59.6192 9.09123 61.3859 5.80815 64.0569 3.58233C66.7557 1.32869 70.2196 0.201872 74.4487 0.201872ZM77.537 17.1459L78.163 13.9324C78.33 13.0977 78.4134 12.3465 78.4134 11.6787C78.4134 10.1485 77.9961 8.99385 77.1614 8.21481C76.3546 7.43578 75.186 7.04626 73.6558 7.04626C71.8195 7.04626 70.3309 7.56098 69.1902 8.59042C68.0773 9.61986 67.2983 11.2753 66.8531 13.5568L66.1436 17.1459H77.537ZM107.708 7.04626C103.535 7.04626 101.101 8.77127 100.405 12.2213L100.113 13.5985H111.298L110.004 19.9838H98.8608L96.8576 30H88.5943L92.0999 12.43C93.7136 4.2779 99.0417 0.201872 108.084 0.201872C109.698 0.201872 111.298 0.38272 112.883 0.744416C114.469 1.10611 115.777 1.60692 116.806 2.24684L113.259 8.46522C112.536 7.99223 111.687 7.64445 110.713 7.42187C109.74 7.17146 108.738 7.04626 107.708 7.04626ZM147.695 0.786149L143.563 21.361C142.673 25.7849 140.864 29.0819 138.137 31.252C135.439 33.45 131.905 34.549 127.537 34.549C122.279 34.549 118.091 33.297 114.975 30.7929L119.023 24.7832C121.666 26.7865 124.616 27.7881 127.871 27.7881C129.985 27.7881 131.641 27.2734 132.837 26.2439C134.034 25.1867 134.868 23.4617 135.341 21.0689L135.55 20.0256C134.493 21.055 133.296 21.834 131.961 22.3627C130.653 22.8635 129.248 23.1139 127.746 23.1139C124.713 23.1139 122.32 22.2653 120.567 20.5681C118.842 18.8431 117.98 16.4225 117.98 13.3064C117.98 12.1378 118.105 10.8858 118.356 9.55031L120.108 0.786149H128.372L126.577 9.71724C126.41 10.4963 126.327 11.2058 126.327 11.8457C126.327 13.3203 126.716 14.4332 127.495 15.1844C128.274 15.9356 129.387 16.3112 130.834 16.3112C132.531 16.3112 133.964 15.7826 135.133 14.7253C136.329 13.6681 137.15 12.0265 137.595 9.80071L139.39 0.786149H147.695ZM163.645 7.17146L160.348 23.6147H165.063L163.811 30H146.033L147.326 23.6147H152.084L155.339 7.17146H150.623L151.876 0.786149H169.654L168.402 7.17146H163.645ZM189.896 0.201872C192.873 0.201872 195.21 1.07829 196.908 2.83112C198.633 4.55613 199.495 6.96279 199.495 10.0511C199.495 11.0806 199.356 12.3326 199.078 13.8072L195.864 30H187.559L190.856 13.6402C191.023 12.8056 191.107 12.0683 191.107 11.4283C191.107 9.98156 190.731 8.89647 189.98 8.17308C189.228 7.42187 188.129 7.04626 186.683 7.04626C184.986 7.04626 183.539 7.57489 182.342 8.63216C181.146 9.6616 180.311 11.2892 179.838 13.515L176.541 30H168.278L174.121 0.786149H182.134L181.591 3.62407C182.676 2.51116 183.928 1.66256 185.347 1.07829C186.766 0.494011 188.283 0.201872 189.896 0.201872ZM224.073 14.7671H231.377L228.288 30H222.654L222.988 28.2889C220.985 29.8192 218.536 30.5843 215.643 30.5843C213.25 30.5843 211.066 30.0696 209.091 29.0401C207.115 27.9829 205.557 26.4943 204.416 24.5746C203.276 22.627 202.705 20.3733 202.705 17.8137C202.705 14.4193 203.484 11.3866 205.042 8.71562C206.601 6.04464 208.785 3.95794 211.595 2.45551C214.405 0.953086 217.632 0.201872 221.277 0.201872C224.087 0.201872 226.577 0.660947 228.747 1.5791C230.945 2.49725 232.698 3.83274 234.006 5.58557L228.08 10.2598C227.134 9.09123 226.09 8.27046 224.95 7.79747C223.809 7.29667 222.459 7.04626 220.901 7.04626C218.926 7.04626 217.187 7.49142 215.685 8.38175C214.21 9.24426 213.069 10.4406 212.262 11.9709C211.456 13.5011 211.052 15.2401 211.052 17.1876C211.052 19.2465 211.622 20.8741 212.763 22.0705C213.932 23.2669 215.573 23.8651 217.688 23.8651C219.441 23.8651 221.054 23.3643 222.529 22.3627L224.073 14.7671Z" fill="url(#paint0_linear_525_431)"/>
<path d="M58.52 48.853H69.427V50.244H58.52V48.853ZM63.07 49.75H64.786V54.17H63.07V49.75ZM63.941 42.522C66.515 42.522 68.296 43.588 68.296 45.239C68.296 46.877 66.515 47.93 63.941 47.93C61.38 47.93 59.599 46.877 59.599 45.239C59.599 43.588 61.38 42.522 63.941 42.522ZM63.941 43.9C62.368 43.9 61.367 44.368 61.367 45.239C61.367 46.097 62.368 46.565 63.941 46.565C65.527 46.565 66.515 46.097 66.515 45.239C66.515 44.368 65.527 43.9 63.941 43.9ZM78.773 42.106H80.502V54.183H78.773V42.106ZM71.129 49.971H72.195C74.327 49.971 76.03 49.893 77.941 49.568L78.11 50.959C76.16 51.31 74.392 51.375 72.195 51.375H71.129V49.971ZM71.116 43.133H76.797V47.787H72.884V50.491H71.129V46.422H75.029V44.511H71.116V43.133ZM83.79 45.369H92.136V46.734H83.79V45.369ZM82.438 47.982H93.345V49.36H82.438V47.982ZM83.79 42.548H85.506V46.045H83.79V42.548ZM83.673 52.519H92.201V53.897H83.673V52.519ZM83.673 50.322H85.402V52.883H83.673V50.322ZM102.572 44.576H105.848V45.967H102.572V44.576ZM102.572 48.307H105.848V49.698H102.572V48.307ZM100.492 42.951C102.286 42.951 103.599 44.615 103.599 47.241C103.599 49.893 102.286 51.557 100.492 51.557C98.6849 51.557 97.3849 49.893 97.3849 47.241C97.3849 44.615 98.6849 42.951 100.492 42.951ZM100.492 44.524C99.6209 44.524 99.0229 45.473 99.0229 47.241C99.0229 49.035 99.6209 49.997 100.492 49.997C101.376 49.997 101.961 49.035 101.961 47.241C101.961 45.473 101.376 44.524 100.492 44.524ZM105.575 42.106H107.291V54.183H105.575V42.106ZM115.597 45.226H118.405V46.617H115.597V45.226ZM117.495 42.132H119.224V50.907H117.495V42.132ZM111.281 52.571H119.497V53.949H111.281V52.571ZM111.281 50.166H113.01V53.39H111.281V50.166ZM111.931 43.705H113.335V44.459C113.335 46.721 112.269 48.814 109.955 49.581L109.084 48.203C111.073 47.553 111.931 45.98 111.931 44.459V43.705ZM112.295 43.705H113.686V44.459C113.686 45.863 114.505 47.358 116.403 47.995L115.558 49.347C113.322 48.606 112.295 46.604 112.295 44.459V43.705ZM109.552 42.938H116.026V44.303H109.552V42.938ZM129.363 42.119H131.105V54.157H129.363V42.119ZM121.368 43.926H128.492V45.291H121.368V43.926ZM124.943 45.954C126.724 45.954 128.037 47.15 128.037 48.827C128.037 50.504 126.724 51.7 124.943 51.7C123.162 51.7 121.862 50.504 121.862 48.827C121.862 47.15 123.162 45.954 124.943 45.954ZM124.943 47.358C124.111 47.358 123.513 47.904 123.513 48.827C123.513 49.75 124.111 50.296 124.943 50.296C125.775 50.296 126.373 49.75 126.373 48.827C126.373 47.904 125.775 47.358 124.943 47.358ZM124.059 42.288H125.801V44.771H124.059V42.288ZM143.868 42.119H145.61V54.157H143.868V42.119ZM144.83 46.617H146.949V48.047H144.83V46.617ZM137.316 43.068H138.564V45.096C138.564 47.605 138.278 50.192 136.705 51.492L135.574 50.296C137.108 49.087 137.316 47.007 137.316 45.096V43.068ZM137.719 43.068H138.928V45.096C138.928 46.929 139.123 49.113 140.683 50.387L139.747 51.661C137.979 50.322 137.719 47.488 137.719 45.096V43.068ZM140.566 43.068H141.788V45.096C141.788 47.514 141.515 50.335 139.747 51.661L138.824 50.387C140.371 49.126 140.566 46.955 140.566 45.096V43.068ZM140.969 43.068H142.204V45.096C142.204 47.02 142.412 49.1 143.946 50.296L142.893 51.557C141.229 50.244 140.969 47.605 140.969 45.096V43.068ZM156.113 42.119H157.855V54.157H156.113V42.119ZM148.118 43.224H154.878V44.602H148.118V43.224ZM147.962 51.414L147.793 49.997C149.964 49.997 152.863 49.958 155.346 49.659L155.437 50.92C152.902 51.349 150.133 51.401 147.962 51.414ZM149.158 44.303H150.835V50.374H149.158V44.303ZM152.161 44.303H153.838V50.374H152.161V44.303ZM164.354 48.164H166.083V50.283H164.354V48.164ZM159.778 47.592H170.659V48.957H159.778V47.592ZM165.199 49.815C167.799 49.815 169.372 50.595 169.372 51.986C169.372 53.377 167.799 54.157 165.199 54.157C162.586 54.157 161.013 53.377 161.013 51.986C161.013 50.595 162.586 49.815 165.199 49.815ZM165.199 51.115C163.587 51.115 162.768 51.388 162.768 51.986C162.768 52.571 163.587 52.857 165.199 52.857C166.811 52.857 167.63 52.571 167.63 51.986C167.63 51.388 166.811 51.115 165.199 51.115ZM164.029 43.25H165.563V43.549C165.563 45.356 163.938 46.838 160.831 47.124L160.233 45.772C162.872 45.551 164.029 44.485 164.029 43.549V43.25ZM164.874 43.25H166.408V43.549C166.408 44.498 167.552 45.551 170.204 45.772L169.606 47.124C166.512 46.838 164.874 45.369 164.874 43.549V43.25ZM160.766 42.613H169.684V43.978H160.766V42.613Z" fill="#A6B9AA"/>
<defs>
<linearGradient id="paint0_linear_525_431" x1="1" y1="13.303" x2="239.126" y2="16.9389" gradientUnits="userSpaceOnUse">
<stop stop-color="#DDEEDF"/>
<stop offset="0.165" stop-color="#B6CDBD" stop-opacity="0.8"/>
<stop offset="0.295" stop-color="#AEC5B5" stop-opacity="0.9"/>
<stop offset="0.455" stop-color="#A3BAA9"/>
<stop offset="0.58" stop-color="#98AE9D" stop-opacity="0.83"/>
<stop offset="0.71" stop-color="#829887" stop-opacity="0.9252"/>
<stop offset="0.845" stop-color="#728775"/>
<stop offset="0.9999" stop-color="#708674"/>
<stop offset="1" stop-color="#5C715E"/>
</linearGradient>
</defs>
</svg>
