<svg width="15" height="14" viewBox="0 0 15 14" fill="none" xmlns="http://www.w3.org/2000/svg">
<path d="M5.11328 5.60742C6.49399 5.60742 7.61328 4.48813 7.61328 3.10742C7.61328 1.72671 6.49399 0.607422 5.11328 0.607422C3.73257 0.607422 2.61328 1.72671 2.61328 3.10742C2.61328 4.48813 3.73257 5.60742 5.11328 5.60742Z" stroke="white" stroke-linecap="round" stroke-linejoin="round"/>
<path d="M0.613281 12.6074H5.11328H9.61328V12.0653C9.60532 11.3031 9.4043 10.5553 9.02901 9.89192C8.65371 9.22842 8.11638 8.67092 7.46721 8.27143C6.81803 7.87193 6.07819 7.6435 5.3168 7.60745C5.24892 7.60424 5.18106 7.60256 5.11328 7.60242C5.0455 7.60256 4.97764 7.60424 4.90976 7.60745C4.14837 7.6435 3.40853 7.87193 2.75935 8.27143C2.11018 8.67092 1.57285 9.22842 1.19755 9.89192C0.822258 10.5553 0.621242 11.3031 0.613281 12.0653V12.6074Z" stroke="white" stroke-linecap="round" stroke-linejoin="round"/>
<path d="M9.11328 5.60742C10.494 5.60742 11.6133 4.48813 11.6133 3.10742C11.6133 1.72671 10.494 0.607422 9.11328 0.607422" stroke="white" stroke-linecap="round" stroke-linejoin="round"/>
<path d="M11.6133 12.6075H13.6133V12.0653C13.6053 11.3031 13.4043 10.5553 13.029 9.89192C12.6537 9.22842 12.1164 8.67094 11.4672 8.27145C11.0476 8.0132 10.59 7.82644 10.1133 7.71692" stroke="white" stroke-linecap="round" stroke-linejoin="round"/>
</svg>
