<svg width="15" height="15" viewBox="0 0 15 15" fill="none" xmlns="http://www.w3.org/2000/svg">
<g clip-path="url(#clip0_3_9697)">
<path d="M11.7373 11.5992H12.5394C13.0916 11.5992 13.5394 11.1515 13.5394 10.5992V8.06436C13.5394 7.51207 13.0916 7.06436 12.5394 7.06436H11.9873V3.48242C11.9873 2.93014 11.5396 2.48242 10.9873 2.48242H1.79687C1.24459 2.48242 0.796875 2.93014 0.796875 3.48242V10.7415C0.796875 11.2152 1.18087 11.5992 1.65455 11.5992H2.1123" stroke="white" stroke-linecap="round" stroke-linejoin="round"/>
<path d="M11.9865 4.31592H0.796875" stroke="white" stroke-linecap="round" stroke-linejoin="round"/>
<path d="M11.9865 7.06421H0.796875" stroke="white" stroke-linecap="round" stroke-linejoin="round"/>
<path d="M4.57617 4.31592V7.06049" stroke="white" stroke-linecap="round" stroke-linejoin="round"/>
<path d="M8.14453 4.31592V7.06049" stroke="white" stroke-linecap="round" stroke-linejoin="round"/>
<path d="M3.50147 12.9814C4.27246 12.9814 4.89747 12.3564 4.89747 11.5854C4.89747 10.8144 4.27246 10.1894 3.50147 10.1894C2.73048 10.1894 2.10547 10.8144 2.10547 11.5854C2.10547 12.3564 2.73048 12.9814 3.50147 12.9814Z" stroke="white" stroke-linecap="round" stroke-linejoin="round"/>
<path d="M10.3433 12.9814C11.1143 12.9814 11.7393 12.3564 11.7393 11.5854C11.7393 10.8144 11.1143 10.1894 10.3433 10.1894C9.57228 10.1894 8.94727 10.8144 8.94727 11.5854C8.94727 12.3564 9.57228 12.9814 10.3433 12.9814Z" stroke="white" stroke-linecap="round" stroke-linejoin="round"/>
<path d="M4.89844 11.5853H6.91681H8.94604" stroke="white" stroke-linecap="round" stroke-linejoin="round"/>
</g>
<defs>
<clipPath id="clip0_3_9697">
<rect width="14" height="14" fill="white" transform="translate(0.113281 0.107422)"/>
</clipPath>
</defs>
</svg>
